<?xml version="1.0" encoding="UTF-8"?>
<svg id="Layer_2" data-name="Layer 2" xmlns="http://www.w3.org/2000/svg" xmlns:xlink="http://www.w3.org/1999/xlink" viewBox="0 0 298.79 336.03">
  <defs>
    <style>
      .cls-1 {
        fill: url(#radial-gradient);
      }

      .cls-2 {
        clip-path: url(#clippath);
      }

      .cls-3 {
        fill: none;
      }
    </style>
    <clipPath id="clippath">
      <polygon class="cls-3" points="224.89 179.08 224.89 96.06 153 54.56 81.11 96.06 81.11 179.08 153 220.58 224.89 179.08"/>
    </clipPath>
    <radialGradient id="radial-gradient" cx="224.69" cy="85.5" fx="224.69" fy="85.5" r="110.09" gradientTransform="translate(460.43 33.47) rotate(146.11) scale(1 1.03)" gradientUnits="userSpaceOnUse">
      <stop offset=".17" stop-color="#addbf2"/>
      <stop offset=".3" stop-color="#a8d8f1"/>
      <stop offset=".45" stop-color="#99d2ee"/>
      <stop offset=".62" stop-color="#82c8ea"/>
      <stop offset=".79" stop-color="#61b9e5"/>
      <stop offset=".97" stop-color="#37a6de"/>
      <stop offset="1" stop-color="#01153a"/>
    </radialGradient>
  </defs>
  <g id="Layer_1-2" data-name="Layer 1">
    <g class="cls-2">
      <polygon class="cls-1" points="159.55 332.73 298.79 241.32 154.12 323.93 154.04 323.81 293.31 232.38 148.61 315.01 148.54 314.89 287.83 223.45 143.1 306.08 143.03 305.97 282.36 214.51 137.6 297.16 137.53 297.05 276.88 205.57 132.09 288.24 132.02 288.13 271.4 196.63 126.58 279.32 126.52 279.21 265.92 187.69 121.08 270.4 121.01 270.29 260.44 178.76 115.57 261.48 115.51 261.37 254.97 169.82 110.06 252.55 110 252.45 249.49 160.88 104.56 243.63 104.49 243.53 244.01 151.94 99.05 234.71 98.99 234.61 238.53 143.01 93.54 225.79 93.48 225.69 233.05 134.07 88.04 216.87 87.98 216.77 227.57 125.13 82.53 207.95 82.47 207.85 222.1 116.19 77.03 199.02 76.97 198.93 216.62 107.25 71.52 190.1 71.46 190.01 211.14 98.32 66.01 181.18 65.96 181.09 205.66 89.38 60.51 172.26 60.45 172.17 200.18 80.44 55 163.34 54.95 163.25 194.71 71.5 49.49 154.42 49.44 154.33 189.23 62.56 43.99 145.49 43.94 145.41 183.75 53.63 38.48 136.57 38.43 136.49 178.27 44.69 32.97 127.65 32.92 127.57 172.79 35.75 27.47 118.73 27.42 118.65 167.32 26.81 21.96 109.81 21.91 109.73 161.84 17.88 16.46 100.89 16.41 100.81 156.36 8.94 10.95 91.96 10.9 91.89 150.88 0 5.44 83.04 5.41 82.99 4.27 83.71 4.27 83.71 4.27 83.71 0 86.42 153 336.03 157.65 333.97 157.65 333.97 157.65 333.97 159.75 333.05 159.55 332.73"/>
    </g>
  </g>
</svg>